<svg fill="#ffd56fc2" xmlns="http://www.w3.org/2000/svg"  viewBox="0 0 50 50" width="35px" height="35px"><path d="M 25 5 C 20.833333 5 14.702989 6.0018897 9.7949219 9.1582031 C 6.9788239 10.969411 5.3816088 13.738637 4.7773438 16.664062 C 4.1730786 19.589489 4.5208888 22.685719 5.5507812 25.359375 C 6.1126753 26.819249 7.1271121 28.05633 8.3632812 28.8125 C 9.1792741 29.311646 10.137356 29.441447 11.087891 29.335938 C 11.256935 32.582501 11.982627 35.314351 13.140625 37.410156 A 1.0001 1.0001 0 0 0 13.160156 37.445312 C 13.064765 38.167751 13 38.902698 13 39.658203 C 13 42.239834 14.304718 44.079127 16.050781 44.595703 C 17.504898 45.025906 19.121203 44.513766 20.259766 43.271484 C 21.515288 44.347242 23.180004 45 25 45 C 26.817633 45 28.477948 44.348499 29.732422 43.275391 C 30.889377 44.540121 32.549412 45.041172 34.021484 44.572266 C 35.733684 44.026871 36.998047 42.202891 36.998047 39.658203 C 36.998047 38.899756 36.93204 38.162529 36.835938 37.4375 A 1.0001 1.0001 0 0 0 36.910156 37.316406 C 38.039591 35.235291 38.744889 32.536273 38.912109 29.339844 C 39.847264 29.436664 40.790375 29.301334 41.589844 28.804688 C 42.808975 28.047341 43.808626 26.816037 44.386719 25.371094 C 46.568576 19.91652 45.065492 12.506069 40.009766 9.1660156 C 35.894754 6.4470915 29.246 5 25 5 z M 25 7 C 25.306453 7 25.658479 7.0252346 26 7.0449219 L 26 22.941406 C 26 26.062054 27.790592 28.80256 30.425781 30.34375 L 30.427734 30.34375 C 33.447657 32.107013 34.998047 35.474522 34.998047 39.658203 C 34.998047 41.593516 34.213363 42.411411 33.414062 42.666016 C 32.614762 42.920621 31.610475 42.640646 30.886719 41.517578 C 29.825034 39.869658 28.058408 38.68826 26 38.662109 L 26 34.917969 A 4 2.5 0 0 0 25 30 A 4 2.5 0 0 0 24 34.919922 L 24 38.675781 C 22.081368 38.769684 20.204478 39.694235 19.171875 41.417969 C 18.458624 42.608685 17.432374 42.918909 16.617188 42.677734 C 15.801953 42.43656 15 41.621572 15 39.658203 C 15 35.475579 16.550517 32.106938 19.570312 30.34375 L 19.572266 30.34375 C 22.209495 28.802644 24 26.062054 24 22.941406 L 24 7.03125 C 24.339551 7.0173794 24.68588 7 25 7 z M 22 7.1835938 L 22 22.941406 C 22 25.298758 20.655225 27.394293 18.5625 28.617188 C 16.363607 29.901069 14.829028 31.882521 13.935547 34.251953 C 13.397581 32.671848 13.0496 30.802045 13 28.613281 A 1.0001 1.0001 0 0 0 13 28.609375 C 12.9966 28.472247 12.998047 28.317664 12.998047 28.146484 C 12.996147 23.430564 13.957031 20.291016 13.957031 20.291016 A 1.0001 1.0001 0 0 0 12.984375 18.986328 A 1.0001 1.0001 0 0 0 12.042969 19.708984 C 12.042969 19.708984 11.099032 22.864986 11.013672 27.490234 C 10.538356 27.603892 10.008469 27.475802 9.40625 27.107422 C 8.6046691 26.617092 7.8190747 25.682751 7.4179688 24.640625 C 6.5218612 22.314281 6.2205933 19.565184 6.7363281 17.068359 C 7.2520629 14.571535 8.5430979 12.341589 10.875 10.841797 C 14.258345 8.6660124 18.48216 7.5780988 22 7.1835938 z M 28 7.2402344 C 31.66274 7.747089 36.197806 9.0431358 38.908203 10.833984 C 42.934476 13.493931 44.349439 20.083433 42.53125 24.628906 C 42.110343 25.680963 41.323775 26.615565 40.535156 27.105469 C 39.946913 27.470897 39.440929 27.600198 38.984375 27.494141 C 38.899519 22.866726 37.955078 19.708984 37.955078 19.708984 A 1.0001 1.0001 0 0 0 36.982422 18.986328 A 1.0001 1.0001 0 0 0 36.041016 20.291016 C 36.041016 20.291016 37.001943 23.430564 37 28.146484 A 1.0001 1.0001 0 0 0 37.001953 28.191406 C 37.002136 28.343177 37.003096 28.486607 37 28.609375 A 1.0001 1.0001 0 0 0 37 28.611328 C 36.950336 30.801018 36.601045 32.670958 36.0625 34.251953 C 35.169038 31.882251 33.634596 29.901161 31.435547 28.617188 C 29.344736 27.394376 28 25.298758 28 22.941406 L 28 7.2402344 z M 18 21 A 2 2 0 0 0 18 25 A 2 2 0 0 0 18 21 z M 32 21 A 2 2 0 0 0 32 25 A 2 2 0 0 0 32 21 z M 24.320312 40.658203 L 24.998047 40.658203 L 25.931641 40.658203 C 26.891817 40.658203 27.770186 41.056421 28.474609 41.722656 C 27.582489 42.502052 26.365397 43 25 43 C 23.622892 43 22.395015 42.492609 21.5 41.701172 C 22.23099 41.032913 23.258421 40.658203 24.320312 40.658203 z"/></svg>