<svg enable-background="new 0 0 1724.454 761.758" height="762" viewBox="0 0 1724.454 761.758" width="1725" xmlns="http://www.w3.org/2000/svg" xmlns:xlink="http://www.w3.org/1999/xlink"><linearGradient id="a" gradientUnits="userSpaceOnUse" x1="176.8199" x2="259.5205" y1="263.5612" y2="759.7652"><stop offset=".1426" stop-color="#253803"/><stop offset=".631" stop-color="#000d00"/></linearGradient><linearGradient id="b" gradientUnits="userSpaceOnUse" x1="1462.7991" x2="1462.9618" y1="116.7187" y2="625.4055"><stop offset=".1426" stop-color="#182a00"/><stop offset=".6959" stop-color="#000d00"/></linearGradient><linearGradient id="c" gradientUnits="userSpaceOnUse" x1="114.2331" x2="118.6414" y1="577.9307" y2="812.4086"><stop offset=".1426" stop-color="#122e00"/><stop offset="1" stop-color="#0c2200"/></linearGradient><linearGradient id="d" gradientUnits="userSpaceOnUse" x1="1248.381" x2="1247.3937" y1="414.2251" y2="787.8026"><stop offset=".1426" stop-color="#30490b"/><stop offset=".7948" stop-color="#041f00"/></linearGradient><linearGradient id="e" gradientUnits="userSpaceOnUse" x1="492.4415" x2="492.9906" y1="458.2135" y2="782.7347"><stop offset=".1426" stop-color="#586b2c"/><stop offset="1" stop-color="#182603"/></linearGradient><linearGradient id="f" gradientTransform="matrix(-.9782 .2077 .2077 .9782 -9431.8271 866.3341)" gradientUnits="userSpaceOnUse" x1="-9539.3066" x2="-9565.2266" y1="1994.74" y2="1705.1782"><stop offset=".5686" stop-color="#182603" stop-opacity="0"/><stop offset="1" stop-color="#182603"/></linearGradient><linearGradient id="g" gradientTransform="matrix(1.1495 -.4129 .3381 .9411 1277.821 -1947.4773)" gradientUnits="userSpaceOnUse" x1="-867.3369" x2="-810.677" y1="2513.979" y2="2171.6479"><stop offset=".4219" stop-color="#182603" stop-opacity="0"/><stop offset=".7795" stop-color="#182603"/></linearGradient><linearGradient id="h" gradientTransform="matrix(.9411 -.3381 .1856 .5166 164.5744 -2347.272)" gradientUnits="userSpaceOnUse" x1="105.9915" x2="162.6515" y1="6037.6758" y2="5695.3442"><stop offset=".4219" stop-color="#182603" stop-opacity="0"/><stop offset=".8128" stop-color="#041100"/></linearGradient><linearGradient id="i" gradientTransform="matrix(.6587 -.3128 .2588 .545 -952.4114 -2296.0715)" gradientUnits="userSpaceOnUse" x1="335.8484" x2="376.2744" y1="5756.001" y2="5524.2476"><stop offset=".4219" stop-color="#182603" stop-opacity="0"/><stop offset="1" stop-color="#2a430a"/></linearGradient><linearGradient id="j" gradientTransform="matrix(.9637 -.2671 .2671 .9637 384.0891 -1355.6421)" gradientUnits="userSpaceOnUse" x1="-531.6805" x2="-413.7393" y1="2063.3938" y2="1784.627"><stop offset=".4997" stop-color="#182603" stop-opacity="0"/><stop offset="1" stop-color="#3d4e1b"/></linearGradient><linearGradient id="k" gradientUnits="userSpaceOnUse" x1="1684.979" x2="1427.6669" y1="482.3375" y2="96.5974"><stop offset=".5226" stop-color="#0e1e00" stop-opacity="0"/><stop offset=".535" stop-color="#0c1c00" stop-opacity=".054"/><stop offset=".6404" stop-color="#031100" stop-opacity=".5132"/><stop offset=".7521" stop-color="#000d00"/></linearGradient><linearGradient id="l" gradientUnits="userSpaceOnUse" x1="46.9047" x2="250.7395" y1="757.9612" y2="369.3332"><stop offset=".5175" stop-color="#0e1e00" stop-opacity="0"/><stop offset=".5251" stop-color="#0c1c00" stop-opacity=".054"/><stop offset=".5903" stop-color="#031100" stop-opacity=".5132"/><stop offset=".6594" stop-color="#000d00"/></linearGradient><path d="m23.509 761.758s-37.233-288.307-1.094-291.61c14.473-1.323 35.856 48.763 35.856 48.763s12.302-259.211 75.704-260.201c33.533-.524 58.137 102.133 58.137 102.133s11.336-25.555 22.491-25.585c29.785-.08 44.016 98.657 44.016 98.657s10.534-244.497 69.034-219.074c25.184 10.945 40.247 175.058 40.247 175.058s13.54-33.544 26.907-34.817c65.994-6.285 80.856 406.677 80.856 406.677h-452.154z" fill="url(#a)"/><path d="m1201.474 761.758s37.576-370.289 84.385-386.823c17.327-6.12 25.365 21.941 25.365 21.941s12.501-82.942 45.32-84.445c16.567-.758 34.818 25.63 34.818 25.63s20.356-125.546 46.584-150.03c23.135-21.597 36.427 63.747 36.427 63.747s53.207-273.163 118.388-250.434c42.635 14.867 55.364 217.316 55.364 217.316s12.782-13.061 20.526-15.449c55.804-17.208 6.071 282.31 6.071 282.31s19.423-22.02 28.838-24.285c59.045-14.2-25.806 300.523-25.806 300.523h-476.28z" fill="url(#b)"/><path d="m5.148 761.758s-21.505-97.545 23.392-98.381c17.444-.325 34.284 36.152 34.284 36.152s7.777-37.524 27.32-40.981c13.153-2.326 21.249 19.731 21.249 19.731s24.153-102.696 60.623-109.504c49.1-5.761 62.503 192.983 62.503 192.983z" fill="url(#c)"/><path d="m780.741 761.758s16.147-225.813 104.206-259.088c60.2-22.748 115.664 46.109 115.664 46.109s13.838-34.836 47.142-38.312c32.47-3.389 68.42 35.765 68.42 35.765s27.076-103.54 113.835-125.977c54.23-14.025 75.89 16.696 75.89 16.696s52.577-96.597 125.889-69.084c77.304 29.011 71.254 253.308 71.254 253.308s28.287-27.291 58.146-13.108c26.888 12.772 33.946 69.573 33.946 69.573s20.803-20.495 49.681-20.505c59.22-.022 69.37 104.625 69.37 104.625h-933.443z" fill="url(#d)"/><path d="m113.925 761.758s42.007-116.753 127.204-154.629c54.63-24.288 81.238-.186 81.238-.186s40.191-127.588 156.333-136.601c128.655-9.985 110.431 139.81 110.431 139.81s22.111-21.106 45.559-12.046c23.045 8.904 15.713 55.518 15.713 55.518s68.612-84.325 122.711-75.421c52.063 8.569 50.126 92.488 50.126 92.488s22.069-16.589 35.266-11.829c27.589 9.951 3.917 102.896 3.917 102.896z" fill="url(#e)"/><path d="m426.371 718.006s-38.582-70.545-52.522-77.424c-35.431-17.484-69.353 40.433-88.399 40.631-27.282.283-30.96-38.766-57.204-36.957-25.066 1.728-55.92 70.68-55.92 70.68z" fill="url(#f)"/><path d="m941.29 657.88s39.607-78.206 77.983-81.703c27.414-2.497 45.522 38.088 57.541 38.239 22.612.285 54.49-63.604 102.639-76.572 53.937-14.527 103.008 99.942 103.008 99.942z" fill="url(#g)"/><path d="m1245.635 683.212s37.92-48.739 68.457-54.061c21.814-3.802 32.597 18.172 42.053 17.228 17.792-1.776 48.392-41.551 87.443-53.203 43.744-13.052 72.578 49.096 72.578 49.096z" fill="url(#h)"/><path d="m669.758 684.273s9.194-29.284 27.279-30.622c12.919-.955 27.137 25.476 32.969 25.856 10.972.714 17.788-39.472 39.324-46.649 24.125-8.039 51.506 45.164 51.506 45.164z" fill="url(#i)"/><path d="m331.476 612.244s15.144-52.496 41.111-45.641c18.549 4.897 37.095 64.071 45.413 67.869 15.65 7.145 28.132-67.933 59.433-70.698 35.063-3.097 70.623 115.365 70.623 115.365z" fill="url(#j)"/><path d="m1459.041 351.035s16.276-70.582 35.376-82.104c19.32-11.655 49.01-4.568 49.673 1.086 1.188 10.126 7.085-64.607 31.479-80.883 32.822-21.899 74.124 32.899 74.124 32.899z" fill="url(#k)"/><path d="m46.416 536.571s37.663-67.407 54.106-68.672c37.57-2.89 28.793 63.679 60.523 73.254 18.839 5.685 41.935-30.564 63.451-24.409 23.853 6.823 19.892 87.017 19.892 87.017z" fill="url(#l)"/></svg>