<svg fill="#ffd56fc2" xmlns="http://www.w3.org/2000/svg"  viewBox="0 0 50 50" width="35px" height="35px"><path d="M 2.5 7 C 2.224 7 2 7.224 2 7.5 C 2 7.776 2.224 8 2.5 8 L 9.3320312 8 L 12.859375 29.867188 C 13.152375 31.682187 14.699109 33 16.537109 33 L 38.5 33 C 38.776 33 39 32.776 39 32.5 C 39 32.224 38.776 32 38.5 32 L 16.537109 32 C 15.192109 32 14.060703 31.035031 13.845703 29.707031 L 13.326172 26.490234 L 38.363281 26.490234 C 40.186281 26.490234 41.729297 25.183766 42.029297 23.384766 L 43.992188 11.601562 C 44.017187 11.456563 43.977812 11.307313 43.882812 11.195312 C 43.786813 11.083312 43.647 11.019531 43.5 11.019531 L 10.832031 11.019531 L 10.251953 7.4199219 C 10.212953 7.1779219 10.002812 7 9.7578125 7 L 2.5 7 z M 10.994141 12.019531 L 42.910156 12.019531 L 41.042969 23.220703 C 40.822969 24.535703 39.696281 25.490234 38.363281 25.490234 L 13.166016 25.490234 L 10.994141 12.019531 z M 19 37 C 17.343 37 16 38.343 16 40 C 16 41.657 17.343 43 19 43 C 20.657 43 22 41.657 22 40 C 22 38.343 20.657 37 19 37 z M 35 37 C 33.343 37 32 38.343 32 40 C 32 41.657 33.343 43 35 43 C 36.657 43 38 41.657 38 40 C 38 38.343 36.657 37 35 37 z"/></svg>