<svg fill="#ffd56fc2" xmlns="http://www.w3.org/2000/svg"  viewBox="0 0 55 50" width="33px" height="33px"><path d="M 3 2 A 1.0001 1.0001 0 0 0 2 3 C 2 11.795822 2.9555372 14.807701 3.9609375 17.970703 C 2.7043194 20.708967 2 23.867691 2 27 C 2 32.9 5.5055439 38.140565 10.064453 41.896484 C 14.623362 45.652404 20.259091 48 25 48 C 29.740909 48 35.376638 45.652404 39.935547 41.896484 C 44.494456 38.140565 48 32.9 48 27 C 48 23.864109 47.29457 20.701311 46.035156 17.960938 C 47.05716 14.692235 48 10.844499 48 3 A 1.0001 1.0001 0 0 0 47 2 C 38.818635 2 33.740457 5.3724064 32.984375 5.890625 C 32.6723 5.6932232 32.377843 5.4567263 31.318359 5.0625 C 29.874877 4.5253901 27.751984 4 25 4 C 22.248016 4 20.125123 4.5253901 18.681641 5.0625 C 17.622157 5.4567263 17.3277 5.6932232 17.015625 5.890625 C 16.259543 5.3724064 11.181365 2 3 2 z M 4.0683594 4.1152344 C 11.584256 4.4474646 16.412109 7.8085938 16.412109 7.8085938 A 1.0001 1.0001 0 0 0 17.587891 7.8085938 C 17.587891 7.8085938 18.136842 7.4003901 19.380859 6.9375 C 20.624877 6.4746099 22.501984 6 25 6 C 27.498016 6 29.375123 6.4746099 30.619141 6.9375 C 31.863158 7.4003901 32.412109 7.8085938 32.412109 7.8085938 A 1.0001 1.0001 0 0 0 33.587891 7.8085938 C 33.587891 7.8085938 38.414228 4.4485435 45.927734 4.1152344 C 45.824683 11.059034 45.016236 14.643548 44.046875 17.697266 A 1.0001 1.0001 0 0 0 44.101562 18.4375 C 45.323642 20.947571 46 24.019521 46 27 C 46 32.1 42.905153 36.859435 38.664062 40.353516 C 36.577116 42.072875 34.218395 43.462536 31.876953 44.435547 C 29.127575 43.749826 27.642364 42.760691 26.853516 41.990234 C 26.443981 41.590249 26.21689 41.24544 26.09375 41.019531 C 26.000001 40.847542 26.005392 40.840165 26 40.820312 L 26 38.707031 C 26.441238 38.523903 27.020994 38.234743 27.599609 37.800781 C 28.770276 36.922781 30 35.333333 30 33 A 1.0001 1.0001 0 0 0 29 32 L 21 32 A 1.0001 1.0001 0 0 0 20 33 C 20 35.333333 21.229724 36.922781 22.400391 37.800781 C 22.979006 38.234743 23.558762 38.523903 24 38.707031 L 24 40.669922 C 23.95716 40.753822 23.772273 41.16245 22.896484 41.921875 C 21.980553 42.716109 20.449566 43.692433 18.007812 44.382812 C 15.704366 43.412192 13.388586 42.044618 11.335938 40.353516 C 7.0948463 36.859435 4 32.1 4 27 C 4 24.019521 4.6763548 20.947571 5.8984375 18.4375 A 1.0001 1.0001 0 0 0 5.953125 17.697266 C 4.9647444 14.58363 4.1660758 11.823984 4.0683594 4.1152344 z M 7.0742188 6.3710938 A 1.0001 1.0001 0 0 0 6.0957031 7.4199219 C 6.2480966 10.569387 6.5827107 12.562069 7.015625 14.248047 A 1.0001 1.0001 0 0 0 8.7734375 14.613281 C 10.129455 12.864783 11.736653 11.355931 13.535156 10.111328 A 1.0001 1.0001 0 0 0 13.408203 8.3925781 C 12.034755 7.7184543 9.9330547 6.871898 7.2734375 6.3867188 A 1.0001 1.0001 0 0 0 7.0742188 6.3710938 z M 42.910156 6.375 A 1.0001 1.0001 0 0 0 42.701172 6.390625 C 40.0568 6.8758787 37.966495 7.7187996 36.59375 8.3925781 A 1.0001 1.0001 0 0 0 36.464844 10.113281 C 38.239788 11.340991 39.838829 12.879173 41.193359 14.615234 A 1.0001 1.0001 0 0 0 42.955078 14.230469 C 43.373876 12.460143 43.71301 10.31348 43.880859 7.4335938 A 1.0001 1.0001 0 0 0 42.910156 6.375 z M 8.2792969 8.7128906 C 9.3311816 8.9797672 10.249975 9.2523613 11.037109 9.5683594 C 10.205674 10.238856 9.4222652 10.961947 8.6855469 11.744141 C 8.526331 10.887826 8.3806024 9.9209929 8.2792969 8.7128906 z M 41.679688 8.8125 C 41.574714 9.9243349 41.436906 10.869747 41.283203 11.742188 C 40.588299 10.999054 39.852365 10.311556 39.070312 9.6660156 C 39.824894 9.3559729 40.669232 9.0823504 41.679688 8.8125 z M 14.375 19 C 11.989835 19 10.371094 20.316406 10.371094 20.316406 A 1.0001 1.0001 0 0 0 10 21.09375 C 10 21.09375 9.9863912 22.766416 10.800781 24.476562 C 11.615171 26.186709 13.462515 28 16.625 28 C 19.010165 28 20.628906 26.683594 20.628906 26.683594 A 1.0001 1.0001 0 0 0 21 25.90625 C 21 25.90625 21.01361 24.233584 20.199219 22.523438 C 19.384829 20.813291 17.537485 19 14.375 19 z M 35.625 19 C 32.462515 19 30.615171 20.813291 29.800781 22.523438 C 28.986391 24.233584 29 25.90625 29 25.90625 A 1.0001 1.0001 0 0 0 29.371094 26.683594 C 29.371094 26.683594 30.989835 28 33.375 28 C 36.537485 28 38.384829 26.18671 39.199219 24.476562 C 40.013609 22.766416 40 21.09375 40 21.09375 A 1.0001 1.0001 0 0 0 39.628906 20.316406 C 39.628906 20.316406 38.010165 19 35.625 19 z M 14.375 21 C 14.658967 21 14.754145 21.139238 15 21.167969 L 15 25.566406 C 13.833402 25.153103 13.019962 24.487585 12.605469 23.617188 C 12.129105 22.616865 12.14085 21.947694 12.119141 21.585938 C 12.559004 21.327957 13.254494 21 14.375 21 z M 35.625 21 C 36.745506 21 37.440996 21.327957 37.880859 21.585938 C 37.859149 21.947693 37.870859 22.616864 37.394531 23.617188 C 36.980038 24.487586 36.166598 25.153103 35 25.566406 L 35 21.167969 C 35.245855 21.139238 35.341033 21 35.625 21 z M 17 21.701172 C 17.658196 22.14522 18.089207 22.74166 18.394531 23.382812 C 18.870895 24.383136 18.85915 25.052307 18.880859 25.414062 C 18.502393 25.636033 17.897996 25.832109 17 25.917969 L 17 21.701172 z M 33 21.701172 L 33 25.917969 C 32.102004 25.832109 31.497607 25.636033 31.119141 25.414062 C 31.140851 25.052307 31.129141 24.383135 31.605469 23.382812 C 31.910793 22.741661 32.341804 22.14522 33 21.701172 z M 22.244141 34 L 27.755859 34 C 27.499729 34.98649 27.021624 35.733294 26.400391 36.199219 C 25.693471 36.729409 25.189828 36.850115 25 36.90625 C 24.810172 36.850115 24.306529 36.729409 23.599609 36.199219 C 22.978376 35.733294 22.500271 34.98649 22.244141 34 z M 24.865234 42.658203 C 25.054187 42.913823 25.163421 43.133158 25.457031 43.419922 C 26.163349 44.10977 27.201805 44.847888 28.695312 45.488281 C 27.39798 45.812248 26.144323 46 25 46 C 23.778613 46 22.432542 45.783693 21.041016 45.416016 C 22.430811 44.788089 23.462951 44.07881 24.207031 43.433594 C 24.669996 43.032142 24.600203 42.985121 24.865234 42.658203 z"/></svg>