<?xml version="1.0" encoding="UTF-8"?>
<svg id="Layer_1" data-name="Layer 1" xmlns="http://www.w3.org/2000/svg" viewBox="0 0 428.94 79.39">
  <defs>
    <style>
      .cls-1 {
        fill: #f6f2e5;
      }

      .cls-2 {
        fill: #f9a048;
      }

      .cls-3 {
        fill: #333;
      }

      .cls-4 {
        fill: #dd9458;
      }

      .cls-5 {
        fill: #c6814e;
      }

      .cls-6 {
        fill: #235879;
      }

      .cls-7 {
        fill: #3c1a2b;
      }

      .cls-8 {
        fill: #845526;
      }

      .cls-9 {
        fill: none;
        stroke: #47112c;
        stroke-linecap: round;
        stroke-linejoin: round;
        stroke-width: .5px;
      }
    </style>
  </defs>
  <g>
    <path class="cls-4" d="M1.96,56.02c2.14-1.31,4.68-1.77,7.01-2.7,3.78-1.51,7.17-4.62,7.87-8.63l.8,2.85c1.28,1.56,.97,4-.26,5.6-1.23,1.59-3.18,2.48-5.13,3-1.95,.53-3.97,.77-5.88,1.39-.68,.22-1.43,.59-1.6,1.28-.18,.76,.47,1.5,1.19,1.79,.73,.29,1.53,.29,2.29,.47,.4,.1,.87,.44,.7,.81-.1,.22-.37,.28-.61,.32-2.54,.4-5.4,.22-7.31-1.51-.48-.43-.9-.98-1-1.63-.2-1.26,.85-2.38,1.94-3.05Z"/>
    <g>
      <path class="cls-5" d="M37.21,43.66c2.03,4.05,1.44,9.28-1.44,12.78,2.07,.45,4.34,1.04,5.52,2.8,.26,.39,.42,.98,.05,1.27-.16,.13-.38,.15-.58,.17-3.78,.31-7.62,.02-11.31-.88-.35-.08-.71-.18-.97-.44-.32-.32-.4-.81-.63-1.2-.49-.83-1.53-1.09-2.39-1.5-3.73-1.79-4.25-5.9-3.3-9.48,.61-2.3,1.37-4.56,2.29-6.76,.36-.87,.78-1.77,1.53-2.33,1.92-1.44,4.71-.39,6.54,.67,1.98,1.15,3.66,2.84,4.69,4.89Z"/>
      <path class="cls-9" d="M40.73,60.57c0-.4-.2-.8-.53-1.05"/>
      <path class="cls-9" d="M39.5,60.69c-.06-.42-.33-.8-.71-.98"/>
      <path class="cls-9" d="M35.34,56.6c-.99,.35-2.05,.52-3.1,.49"/>
    </g>
    <g>
      <path class="cls-4" d="M46.33,36.05c-.17,6.44-.91,12.88-.46,19.3,.09,1.28,.33,3.3,1.04,4.4,.25,.39,.64,.65,.96,.98,.31,.34,.54,.84,.33,1.25-.24,.49-.91,.55-1.45,.51-.58-.05-1.15-.13-1.72-.26-.44-.1-.89-.23-1.22-.52-.3-.27-.48-.65-.64-1.02-1.38-3.27-1.81-6.87-2.55-10.32-.81-3.79-1.69-7.57-2.63-11.34-.44-1.77-.9-3.57-.8-5.39,.17-3.07,2.56-6.22,5.98-5.32,3.01,.79,3.23,5.28,3.17,7.74Z"/>
      <path class="cls-9" d="M46.53,62.42c.16-.52,.01-1.12-.38-1.5"/>
      <path class="cls-9" d="M47.89,62.19c.13-.4-.03-.88-.38-1.13"/>
      <path class="cls-9" d="M46.55,59.83c-.38,.06-.77,.1-1.16,.12"/>
    </g>
    <path class="cls-4" d="M46.29,30.68c-.11,4.15-1.64,8.46-4.94,10.98-3.1,2.37-7.23,2.83-10.74,4.52-.48,.23-.96,.49-1.32,.89-.52,.56-.75,1.34-.92,2.09-.44,1.96-.58,3.99-.42,6,.11,1.33,.27,2.91-.75,3.77-.37,.31-.84,.47-1.3,.6-2.92,.77-6.17,.16-8.62-1.61-.71-.51-1.36-1.13-1.75-1.91-.35-.72-.47-1.53-.53-2.32-.43-5.16,.78-10.36,2.84-15.11,2.05-4.75,4.92-9.11,7.91-13.33,.76-1.08,1.53-2.15,2.23-3.27,.63-1.01,1.52-1.89,2.23-2.86,1.48-2.01,2.74-4.21,3.37-6.64,.11-.43,.22-1.19,.75-1.23,.45-.04,1.28,.48,1.7,.64,.8,.31,1.68,.58,2.42,1.02,1.89,1.12,3.53,2.63,4.83,4.41,2.5,3.43,3.13,9.24,3.02,13.36Z"/>
    <path class="cls-1" d="M34.83,40.74c2.67-3.08,4.01-7.28,3.61-11.34-.19-1.94-.76-3.83-1.12-5.75-.27-1.47-.42-2.98-.22-4.46,.2-1.48,.77-2.94,1.78-4.04,.39-.42,.72-.84,1.04-1.25,1.28,.96,2.41,2.12,3.36,3.41,2.5,3.43,3.13,9.24,3.02,13.36-.11,4.15-1.64,8.46-4.94,10.98-3.1,2.37-7.23,2.83-10.74,4.52-.26,.12-.51,.26-.75,.42,.38-.84,.93-1.62,1.54-2.32,1.08-1.24,2.36-2.3,3.44-3.54Z"/>
    <path class="cls-6" d="M41.14,24.63c-2.01-.38-3.9-1.3-5.58-2.47-1.39-.97-2.8-2.19-3.59-3.72-.6-1.18-.62-2.75,.43-3.71,.08-.08,.19-.15,.3-.14,.1,.01,.18,.1,.25,.18,1.73,2.01,3.11,4.25,5.39,5.71,1.72,1.1,3.81,1.69,5.83,1.44,.46-.06,.75-.03,1.17,.1,.07,.02,.12,.08,.17,.14,.29,.37,.54,.81,.54,1.28,0,1.94-3.78,1.41-4.92,1.2Z"/>
    <g>
      <path class="cls-8" d="M45.01,1.06c.46-.57,1.1-1.21,1.82-1.03,.37,.09,.65,.39,.93,.64,.8,.73,1.79,1.24,2.84,1.47,.3,.07,.61,.11,.85,.29,.24,.17,.38,.43,.51,.69,.79,1.48,1.57,2.96,2.36,4.44,.19,.36,.36,.84,.07,1.12-.13,.13-.33,.17-.51,.19-1.92,.2-3.6-1.15-5.31-2.02-.27-.14-.56-.27-.86-.21-.37,.07-.63,.4-.98,.54-.4,.16-.88,.02-1.22-.24-.34-.26-.58-.64-.8-1.01-.48-.84-.93-1.84-.89-2.83,.04-.87,.65-1.39,1.18-2.04Z"/>
      <path class="cls-4" d="M44.09,1.87c.88-.04,1.78,.01,2.58,.44,.33,.17,.59,.44,.85,.7,1.01,1.03,2.06,2.1,2.69,3.42,.67,1.39,.43,2.84,.32,4.34-.08,1.06-.14,2.17,.34,3.12,.45,.9,1.26,1.58,1.5,2.6,.26,1.13,0,2.52-.25,3.64-.14,.64-.39,1.35-.98,1.63-.63,.3-1.38-.01-2.08,.08-.85,.11-1.52,.78-2.33,1.06-1.44,.5-2.98-.33-4.25-1.18-1.57-1.04-2.99-2.34-4.57-3.35-1.41-.91-3.05-1.33-4.36-2.48-2.37-2.09-2.97-5.38-2.58-8.43,.21-1.63,.95-3.25,2.3-4.19,1.49-1.03,3.42-1.08,5.23-1.08,1.53,0,3.07-.1,4.59-.24,.33-.03,.66-.06,.99-.07Z"/>
      <path class="cls-1" d="M39.71,15.49c1.39-.48,3.04-.19,4.24-1.03,.99-.7,1.38-2.03,1.28-3.24-.12-1.4-.77-2.77-1-4.18-.04-.27-.08-.55,.01-.81s.35-.48,.62-.42c.25,.05,.4,.29,.52,.52,.66,1.31,1,2.75,1.35,4.17,.17,.68,.34,1.38,.74,1.96,.61,.9,2.21,1.7,3.39,1.39,0,.02,.02,.04,.02,.05,.45,.9,1.26,1.58,1.5,2.6,.26,1.13,0,2.52-.25,3.64-.14,.64-.39,1.35-.98,1.63-.63,.3-1.38-.01-2.08,.08-.85,.11-1.52,.78-2.33,1.06-1.44,.5-2.98-.33-4.25-1.18-1.57-1.04-2.99-2.34-4.57-3.35-.2-.13-.41-.25-.62-.36,.4-1.14,1.28-2.12,2.42-2.51Z"/>
      <path class="cls-8" d="M34.74,1.31c.41-.1,.82-.22,1.25-.22,.42,0,.87,.17,1.1,.52,.24,.38,.18,.89-.02,1.28-.2,.4-.53,.72-.83,1.05-1.18,1.3-2.02,2.9-2.42,4.6-.14,.58-.25,1.22-.71,1.6-.48,.4-1.21,.38-1.77,.09s-.96-.8-1.31-1.32c-.51-.75-.93-1.56-1.27-2.4-.43-1.09-.72-2.31-.39-3.44,.92-3.17,4.17-1.23,6.38-1.77Z"/>
      <path class="cls-7" d="M40.57,12.13c0,.57,.46,1.03,1.03,1.03s1.03-.46,1.03-1.03c0-.57-.46-1.03-1.03-1.03s-1.03,.46-1.03,1.03Z"/>
      <path class="cls-7" d="M47.88,11.69c0,.57,.29,1.03,.66,1.03s.66-.46,.66-1.03c0-.57-.29-1.03-.66-1.03s-.66,.46-.66,1.03Z"/>
      <path class="cls-9" d="M49.61,18.16c.07,1.2-.2,2.42-.77,3.48"/>
      <path class="cls-3" d="M51.21,15.82c.29,.27,.3,.72,.29,1.12,0,.14,0,.28-.08,.4-.13,.21-.41,.25-.66,.26-.12,0-.24,0-.34,.07-.16,.09-.21,.29-.26,.46-.06,.18-.13,.36-.27,.49-.13,.13-.33,.21-.51,.16-.47-.14-.48-.98-.96-1.01-.09,0-.18,.02-.27,.05-.28,.07-.6,.07-.85-.08-.41-.26-.44-.91-.15-1.3,.53-.7,3.39-1.25,4.06-.61Z"/>
      <path class="cls-9" d="M48.48,17.77c-.15-.16-.31-.32-.51-.43-.2-.1-.43-.15-.64-.08"/>
      <path class="cls-9" d="M50.41,17.62c.17-.29,.35-.6,.64-.77"/>
      <g>
        <circle class="cls-4" cx="50.73" cy="19.17" r=".18"/>
        <path class="cls-4" d="M50.91,20.37c0,.1,.08,.18,.18,.18s.18-.08,.18-.18-.08-.18-.18-.18-.18,.08-.18,.18Z"/>
      </g>
      <g>
        <path class="cls-4" d="M47.52,19.54c0,.1,.08,.18,.18,.18s.18-.08,.18-.18c0-.1-.08-.18-.18-.18s-.18,.08-.18,.18Z"/>
        <path class="cls-4" d="M46.78,20.74c0,.1,.08,.18,.18,.18s.18-.08,.18-.18-.08-.18-.18-.18-.18,.08-.18,.18Z"/>
        <circle class="cls-4" cx="46.35" cy="19.9" r=".18"/>
      </g>
    </g>
    <path class="cls-2" d="M41.67,25.93c0,.86,.7,1.55,1.55,1.55s1.55-.7,1.55-1.55-.7-1.55-1.55-1.55-1.55,.7-1.55,1.55Z"/>
    <g>
      <path class="cls-4" d="M36.79,37.46c-.17,6.44-.91,12.88-.46,19.3,.09,1.28,.33,3.3,1.04,4.4,.25,.39,.64,.65,.96,.98s.54,.84,.33,1.25c-.24,.49-.91,.55-1.45,.51-.58-.05-1.15-.13-1.72-.26-.44-.1-.89-.23-1.22-.52-.3-.27-.48-.65-.64-1.02-1.38-3.27-1.81-6.87-2.55-10.32-.81-3.79-1.69-7.57-2.63-11.34-.44-1.77-.9-3.57-.8-5.39,.17-3.07,2.56-6.22,5.98-5.32,3.01,.79,3.23,5.28,3.17,7.74Z"/>
      <path class="cls-9" d="M36.94,63.84c.11-.46-.08-.97-.47-1.24"/>
      <path class="cls-9" d="M38.3,63.77c.1-.47-.05-.99-.38-1.34"/>
      <path class="cls-9" d="M36.63,61.33c-.38,.08-.76,.16-1.14,.25"/>
      <path class="cls-9" d="M36.46,43.93c.11-2.98,.22-5.96,.33-8.94"/>
    </g>
    <path class="cls-9" d="M45.44,36.1c-1.14,2.99-3.49,5.5-6.41,6.83-.07,.03-.15,.08-.14,.15,0,.07,.16,.04,.11-.01"/>
    <g>
      <path class="cls-4" d="M28.39,47.08c2.03,4.05,1.44,9.28-1.44,12.78,2.07,.45,4.34,1.04,5.52,2.8,.26,.39,.42,.98,.05,1.27-.16,.13-.38,.15-.58,.17-3.78,.31-7.62,.02-11.31-.88-.35-.08-.71-.18-.97-.44-.32-.32-.4-.81-.63-1.2-.49-.83-1.53-1.09-2.39-1.5-3.73-1.79-4.25-5.9-3.3-9.48,.61-2.3,1.37-4.56,2.29-6.76,.36-.87,.78-1.77,1.53-2.33,1.92-1.44,4.71-.39,6.54,.67,1.98,1.15,3.66,2.84,4.69,4.89Z"/>
      <path class="cls-9" d="M31.91,63.98c0-.4-.2-.8-.53-1.05"/>
      <path class="cls-9" d="M30.68,64.11c-.06-.42-.33-.8-.71-.98"/>
      <path class="cls-9" d="M26.52,60.02c-.99,.35-2.05,.52-3.1,.49"/>
      <path class="cls-9" d="M13.27,50.66c-.46,1.7-.52,3.51-.17,5.24"/>
    </g>
    <path class="cls-4" d="M25.74,25.24c.6-.84,1.2-1.69,1.8-2.56,.15,1.63,.57,3.31,.09,4.85-.39,1.25-1.32,2.26-1.84,3.46-1.06,2.46-.36,5.66-2.2,7.61-1.49,1.58-4.01,1.61-5.8,2.83-.51,.35-.96,.79-1.44,1.18,.42-1.38,.92-2.73,1.49-4.05,2.05-4.75,4.92-9.11,7.91-13.33Z"/>
    <path class="cls-4" d="M19.45,48.14c-.47,.76-1.27,1.53-2.13,1.28-.49-.14-.84-.61-.98-1.1s-.11-1.02-.06-1.53c.11-1.23,.32-2.5,1.02-3.52,.74-1.08,2.63-2.18,3.4-.67,.77,1.49-.47,4.28-1.25,5.55Z"/>
  </g>
  <path class="cls-9" d="M42.05,8.06c-1.05-.61-2.57-.11-3.06,.99"/>
  <path class="cls-9" d="M49.83,8c-.16-.27-.33-.55-.58-.75-.25-.19-.61-.28-.89-.14-.27,.14-.43,.47-.73,.52"/>
  <path class="cls-9" d="M40.56,20.41c-.56-.87-.78-1.94-.62-2.96"/>
  <path class="cls-9" d="M40.59,17.81c-.34-.37-.86-.56-1.36-.51"/>
  <path class="cls-9" d="M46.92,2.5c.47-.03,.95-.04,1.4,.1,1.07,.35,1.64,1.48,2.28,2.41,.3,.45,.64,.87,1.02,1.26,.3,.31,.64,.62,1.05,.74"/>
  <path class="cls-9" d="M33,2.04c-.98,.86-1.06,2.35-1.72,3.48"/>
</svg>