<?xml version="1.0" encoding="UTF-8"?><svg id="Layer_1" xmlns="http://www.w3.org/2000/svg" xmlns:xlink="http://www.w3.org/1999/xlink" viewBox="0 0 45.34 58.25"><defs><style>.cls-1{fill:none;}.cls-2{fill:#266b7a;font-size:16.74px;}.cls-2,.cls-3,.cls-4{font-family:BodoniSvtyTwoITCTT-Book, 'Bodoni 72';}.cls-5{fill:#fff;stroke:url(#Alyssa);stroke-miterlimit:10;stroke-width:2px;}.cls-6{fill:#f7f2e6;}.cls-7{fill:#f9a149;}.cls-8,.cls-9{fill:#e9dcb7;}.cls-10{fill:#333;}.cls-11,.cls-12{fill:#a7cfe3;}.cls-13{fill:#c5814e;}.cls-14{fill:#dd9458;}.cls-15,.cls-16{fill:#c7de80;}.cls-17,.cls-3{fill:#24597a;}.cls-18{fill:#3c1b2b;}.cls-19{fill:#845526;}.cls-16,.cls-12,.cls-9{mix-blend-mode:multiply;}.cls-20{font-size:15px;}.cls-21{font-size:11.45px;}.cls-4{fill:#25597a;font-size:9px;}</style><pattern id="Alyssa" x="0" y="0" width="144.13" height="138.36" patternTransform="translate(-286.2 -379.14)" patternUnits="userSpaceOnUse" viewBox="0 0 144.13 138.36"><g><rect class="cls-1" x="0" width="144.13" height="138.36"/><path class="cls-16" d="M211.07,158.52c-11.76-1.38-19.37,.35-22.65,3.11-3.02,2.54-4.96,5.41-2.25,11.93,2.94,7.09,1.53,14.73-5.54,15.91-6.22,1.04-10.89-4.84-11.24-12.28-.24-5.18-1.9-8.3-5.53-7.61-3.63,.69-4.63,5.9-3.63,11.76,1.38,8.13,5.54,11.76,6.23,20.23,.49,6.05-2.94,13.66-12.45,15.04-9.3,1.35-15.91-4.32-16.6-10.55-.73-6.59,3.63-10.89,3.11-17.64-.52-6.75-4.01-10.17-5.88-17.29-2.77-10.55,1.21-19.02,7.78-22.65,14.75-8.15,22.83,3.64,35.97,1.56,10.9-1.73,23.35-18.16,33.03-19.54,8.23-1.17,13.83,4.67,15.04,14.01,1.21,9.34-4.74,15.26-15.39,14.01Zm-42.2,.52c0-2.29-1.86-4.15-4.15-4.15s-4.15,1.86-4.15,4.15,1.86,4.15,4.15,4.15,4.15-1.86,4.15-4.15Zm49.46-15.39c0-.96-.78-1.73-1.73-1.73s-1.73,.77-1.73,1.73,.77,1.73,1.73,1.73,1.73-.77,1.73-1.73Z"/><g><path class="cls-9" d="M48.83,139.33c0,7.17,4.59,13.81-1,16.33-8.5,3.83-28-14.33-28-36.17,0-12,8.67-19,17.83-19,12.33,0,18,8.17,18,17.5s-6.83,13.14-6.83,21.33Zm-5.41-5.37c0-1.15-.93-2.08-2.07-2.08s-2.08,.93-2.08,2.08,.93,2.08,2.08,2.08,2.07-.93,2.07-2.08Z"/><path class="cls-12" d="M123.53,162.83c-7.87,2.74-19.44-15.3-17.67-27.02,1.24-8.23,7.12-13.19,13.09-14.22,7.53-1.3,12.9,2.6,13.3,7.24,.55,6.31-3.63,7.52-4.22,14.96-.56,7.13,3.69,16.19-4.49,19.03Zm-3.79-27.51c0-1.43-1.16-2.59-2.59-2.59s-2.59,1.16-2.59,2.59,1.16,2.59,2.59,2.59,2.59-1.16,2.59-2.59Z"/><path class="cls-9" d="M19.39,140.36c0,1.43-1.16,2.59-2.59,2.59s-2.59-1.16-2.59-2.59,1.16-2.59,2.59-2.59,2.59,1.16,2.59,2.59Z"/><path class="cls-12" d="M84.61,132.64c.74,8.1,12.67,7.02,17.9,14.21,10.52,14.47-1.22,46.37-21.63,46.37-11.74,0-24.22-9.72-24.22-29.22,0-15.83,10.17-21.5,8.25-42.17-1.01-10.83-12.5-20.34-12.5-34.75,0-5.92,3.59-13.45,11.55-13.45,7.05,0,10.82,5.95,10.82,12.9s-5.38,15.74,1.37,19.05c5.24,2.57,13.21-4.77,19.5-6.75,5.19-1.64,12.39,.22,14.75,8.5,2.53,8.88-3.25,14.75-11.59,16.69-6.32,1.48-14.8,2.17-14.21,8.61Zm-15.98-30.56c0-1.82-1.47-3.29-3.29-3.29s-3.29,1.47-3.29,3.29,1.47,3.29,3.29,3.29,3.29-1.47,3.29-3.29Zm25.98,9.7c1.29,0,2.33-1.04,2.33-2.33s-1.04-2.33-2.33-2.33-2.33,1.04-2.33,2.33,1.04,2.33,2.33,2.33Zm-19.98,59.67c0-1.82-1.47-3.29-3.29-3.29s-3.29,1.47-3.29,3.29,1.47,3.29,3.29,3.29,3.29-1.47,3.29-3.29Z"/><path class="cls-16" d="M66.94,158.52c-11.76-1.38-19.37,.35-22.65,3.11-3.02,2.54-4.95,5.41-2.25,11.93,2.94,7.09,1.53,14.73-5.54,15.91-6.22,1.04-10.89-4.84-11.24-12.28-.24-5.18-1.9-8.3-5.53-7.61-3.63,.69-4.63,5.9-3.63,11.76,1.38,8.13,5.54,11.76,6.23,20.23,.49,6.05-2.94,13.66-12.45,15.04-9.3,1.35-15.91-4.32-16.6-10.55-.73-6.59,3.63-10.89,3.11-17.64-.52-6.75-4.01-10.17-5.88-17.29-2.77-10.55,1.21-19.02,7.78-22.65,14.75-8.15,22.83,3.64,35.97,1.56,10.9-1.73,23.35-18.16,33.03-19.54,8.23-1.17,13.83,4.67,15.04,14.01,1.21,9.34-4.74,15.26-15.39,14.01Zm-42.2,.52c0-2.29-1.86-4.15-4.15-4.15s-4.15,1.86-4.15,4.15,1.86,4.15,4.15,4.15,4.15-1.86,4.15-4.15Zm49.46-15.39c0-.96-.78-1.73-1.73-1.73s-1.73,.77-1.73,1.73,.77,1.73,1.73,1.73,1.73-.77,1.73-1.73Z"/></g><g><path class="cls-12" d="M190.32,111.99c0,6.23-4.15,10.72-8.65,11.59-4.5,.87-8.32-1.28-12.97,1.21-4.84,2.59-7.09,11.07-16.78,11.07-7.96,0-15.22-7.96-15.22-18.85,0-20.23,13.14-29.23,25.59-29.23,16.6,0,28.02,12.62,28.02,24.21Zm-19.71-14.35c0-2.1-1.7-3.8-3.8-3.8s-3.8,1.7-3.8,3.8,1.7,3.8,3.8,3.8,3.8-1.7,3.8-3.8Z"/><path class="cls-16" d="M211.07,20.16c-11.76-1.38-19.37,.35-22.65,3.11-3.02,2.54-4.96,5.41-2.25,11.93,2.94,7.09,1.53,14.73-5.54,15.91-6.22,1.04-10.89-4.84-11.24-12.28-.24-5.18-1.9-8.3-5.53-7.61-3.63,.69-4.63,5.9-3.63,11.76,1.38,8.13,5.54,11.76,6.23,20.23,.49,6.05-2.94,13.66-12.45,15.04-9.3,1.35-15.91-4.32-16.6-10.55-.73-6.59,3.63-10.89,3.11-17.64-.52-6.75-4.01-10.17-5.88-17.29-2.77-10.55,1.21-19.02,7.78-22.65,14.75-8.15,22.83,3.64,35.97,1.56,10.9-1.73,23.35-18.16,33.03-19.54,8.23-1.17,13.83,4.67,15.04,14.01,1.21,9.34-4.74,15.26-15.39,14.01Zm-42.2,.52c0-2.29-1.86-4.15-4.15-4.15s-4.15,1.86-4.15,4.15,1.86,4.15,4.15,4.15,4.15-1.86,4.15-4.15Zm49.46-15.39c0-.96-.78-1.73-1.73-1.73s-1.73,.77-1.73,1.73,.77,1.73,1.73,1.73,1.73-.77,1.73-1.73Z"/></g><g><path class="cls-12" d="M31.83,83.64c-13.96,1.99-21.17-13.33-17.67-20.33,3.67-7.33,12.12-4.17,19.5-4.17,9.67,0,16.37-7.57,20.42-2.25,4.25,5.58-5.01,24.29-22.25,26.75Zm.52-17.48c0-1.24-1.01-2.25-2.25-2.25s-2.25,1.01-2.25,2.25,1.01,2.25,2.25,2.25,2.25-1.01,2.25-2.25Z"/><path class="cls-9" d="M48.83,.97c0,7.17,4.59,13.81-1,16.33-8.5,3.83-28-14.33-28-36.17,0-12,8.67-19,17.83-19,12.33,0,18,8.17,18,17.5S48.83-7.22,48.83,.97Zm-5.41-5.37c0-1.15-.93-2.08-2.07-2.08s-2.08,.93-2.08,2.08,.93,2.08,2.08,2.08,2.07-.93,2.07-2.08Z"/><path class="cls-12" d="M46.19,111.99c0,6.23-4.15,10.72-8.65,11.59-4.5,.87-8.32-1.28-12.97,1.21-4.84,2.59-7.09,11.07-16.77,11.07-7.96,0-15.22-7.96-15.22-18.85,0-20.23,13.14-29.23,25.59-29.23,16.6,0,28.02,12.62,28.02,24.21Zm-19.71-14.35c0-2.1-1.7-3.8-3.8-3.8s-3.8,1.7-3.8,3.8,1.7,3.8,3.8,3.8,3.8-1.7,3.8-3.8Z"/><path class="cls-16" d="M45.5,88.3c0,1.34-1.08,2.42-2.42,2.42s-2.42-1.08-2.42-2.42,1.08-2.42,2.42-2.42,2.42,1.08,2.42,2.42Z"/><path class="cls-12" d="M129.2,69.79c-3.19,4.68,1.04,10.72-1.38,15.22-2.42,4.5-6.74,5.02-9.86,2.6-3.63-2.83-3.41-6.64-8.3-8.82-5.53-2.46-17.98,2.25-19.71-7.26-.87-4.81,2.37-8.57,7.26-9.68,6.05-1.38,9.35-.18,15.39-3.11,6.05-2.94,11.24-8.99,22.14-12.11,10.41-2.97,16.07,1.56,16.6,5.88,1.04,8.47-17.13,9.95-22.14,17.29Zm-2.25-7.44c0-1.24-1.01-2.25-2.25-2.25s-2.25,1.01-2.25,2.25,1.01,2.25,2.25,2.25,2.25-1.01,2.25-2.25Z"/><path class="cls-9" d="M156.17,108.97c0,17.17-14.5,25.5-27,22.83-10.26-2.19-12.83-17.33-16.67-26.17-3.71-8.56-8.83-22.5-20.17-22.5s-12.83,14.5-23.67,14.5-24.5-15.67-24.5-39.67c0-14.67,9.8-31.46,20.83-30.67,11.67,.83,4.5,19.67,15.33,19.67,9.5,0,7.86-16.26,9.17-23.33,1.67-9,6.83-14.17,18.5-13.17,14.44,1.24,22.33,13.5,18.87,23.34-4.03,11.45-23.87,17.32-21.54,30.49,1.35,7.59,13,12,26,16.17,14.53,4.66,24.83,11.33,24.83,28.5ZM111.21,33.13c0,1.82,1.47,3.29,3.29,3.29s3.29-1.47,3.29-3.29-1.47-3.29-3.29-3.29-3.29,1.47-3.29,3.29Zm-46.69,24.9c0-.96-.77-1.73-1.73-1.73s-1.73,.78-1.73,1.73,.78,1.73,1.73,1.73,1.73-.77,1.73-1.73Zm17.47,10.72c0-2.1-1.7-3.8-3.8-3.8s-3.8,1.7-3.8,3.8,1.71,3.8,3.8,3.8,3.8-1.7,3.8-3.8Zm19.89-15.56c0-.86-.7-1.56-1.56-1.56s-1.56,.7-1.56,1.56,.7,1.56,1.56,1.56,1.56-.7,1.56-1.56Zm29.64,54.69c0-1.75-1.42-3.17-3.17-3.17s-3.17,1.42-3.17,3.17,1.42,3.17,3.17,3.17,3.17-1.42,3.17-3.17Z"/><path class="cls-12" d="M123.53,24.47c-7.87,2.74-19.44-15.3-17.67-27.02,1.24-8.23,7.12-13.19,13.09-14.22,7.53-1.3,12.9,2.6,13.3,7.24,.55,6.31-3.63,7.52-4.22,14.96-.56,7.13,3.69,16.19-4.49,19.03Zm-3.79-27.51c0-1.43-1.16-2.59-2.59-2.59s-2.59,1.16-2.59,2.59,1.16,2.59,2.59,2.59,2.59-1.16,2.59-2.59Z"/><path class="cls-9" d="M19.39,2c0,1.43-1.16,2.59-2.59,2.59s-2.59-1.16-2.59-2.59,1.16-2.59,2.59-2.59,2.59,1.16,2.59,2.59Z"/><path class="cls-9" d="M153.38,88.74c0-8.41-5.08-15.23-11.34-15.23s-11.34,6.82-11.34,15.23,5.08,12.44,11.34,12.44,11.34-4.03,11.34-12.44Z"/><path class="cls-12" d="M84.61-5.72c.74,8.1,12.67,7.02,17.9,14.21,10.52,14.47-1.22,46.37-21.63,46.37-11.74,0-24.22-9.72-24.22-29.22,0-15.83,10.17-21.5,8.25-42.17-1.01-10.83-12.5-20.34-12.5-34.75,0-5.92,3.59-13.45,11.55-13.45,7.05,0,10.82,5.95,10.82,12.9s-5.38,15.74,1.37,19.05c5.24,2.57,13.21-4.77,19.5-6.75,5.19-1.64,12.39,.22,14.75,8.5,2.53,8.88-3.25,14.75-11.59,16.69-6.32,1.48-14.8,2.17-14.21,8.61Zm-15.98-30.56c0-1.82-1.47-3.29-3.29-3.29s-3.29,1.47-3.29,3.29,1.47,3.29,3.29,3.29,3.29-1.47,3.29-3.29Zm25.98,9.7c1.29,0,2.33-1.04,2.33-2.33s-1.04-2.33-2.33-2.33-2.33,1.04-2.33,2.33,1.04,2.33,2.33,2.33Zm-19.98,59.67c0-1.82-1.47-3.29-3.29-3.29s-3.29,1.47-3.29,3.29,1.47,3.29,3.29,3.29,3.29-1.47,3.29-3.29Z"/><path class="cls-16" d="M66.94,20.16c-11.76-1.38-19.37,.35-22.65,3.11-3.02,2.54-4.95,5.41-2.25,11.93,2.94,7.09,1.53,14.73-5.54,15.91-6.22,1.04-10.89-4.84-11.24-12.28-.24-5.18-1.9-8.3-5.53-7.61-3.63,.69-4.63,5.9-3.63,11.76,1.38,8.13,5.54,11.76,6.23,20.23,.49,6.05-2.94,13.66-12.45,15.04-9.3,1.35-15.91-4.32-16.6-10.55-.73-6.59,3.63-10.89,3.11-17.64-.52-6.75-4.01-10.17-5.88-17.29-2.77-10.55,1.21-19.02,7.78-22.65,14.75-8.15,22.83,3.64,35.97,1.56,10.9-1.73,23.35-18.16,33.03-19.54,8.23-1.17,13.83,4.67,15.04,14.01,1.21,9.34-4.74,15.26-15.39,14.01Zm-42.2,.52c0-2.29-1.86-4.15-4.15-4.15s-4.15,1.86-4.15,4.15,1.86,4.15,4.15,4.15,4.15-1.86,4.15-4.15ZM74.21,5.29c0-.96-.78-1.73-1.73-1.73s-1.73,.77-1.73,1.73,.77,1.73,1.73,1.73,1.73-.77,1.73-1.73Z"/><path class="cls-16" d="M130.24,42.47c0,.76-.62,1.38-1.38,1.38s-1.38-.62-1.38-1.38,.62-1.38,1.38-1.38,1.38,.62,1.38,1.38Z"/><path class="cls-8" d="M135.77,4.08c0,1.24-1.01,2.25-2.25,2.25s-2.25-1.01-2.25-2.25,1.01-2.25,2.25-2.25,2.25,1.01,2.25,2.25Z"/><path class="cls-11" d="M52.24,27.25c0,.67-.54,1.21-1.21,1.21s-1.21-.54-1.21-1.21,.54-1.21,1.21-1.21,1.21,.54,1.21,1.21Z"/><path class="cls-11" d="M48.61,95.73c0,.76-.62,1.38-1.38,1.38s-1.38-.62-1.38-1.38,.62-1.38,1.38-1.38,1.38,.62,1.38,1.38Z"/><path class="cls-9" d="M133.18,73.77c0,.67-.54,1.21-1.21,1.21s-1.21-.54-1.21-1.21,.54-1.21,1.21-1.21,1.21,.54,1.21,1.21Z"/><path class="cls-15" d="M95.89,91.69c0,1.88-1.53,3.41-3.41,3.41s-3.41-1.53-3.41-3.41,1.53-3.41,3.41-3.41,3.41,1.53,3.41,3.41Z"/><path class="cls-9" d="M100.87,131.55c0,1.16-.94,2.1-2.1,2.1s-2.1-.94-2.1-2.1,.94-2.1,2.1-2.1,2.1,.94,2.1,2.1Z"/><path class="cls-9" d="M62.07,125.25c0,.87-.7,1.57-1.57,1.57s-1.57-.7-1.57-1.57,.71-1.57,1.57-1.57,1.57,.71,1.57,1.57Z"/><circle class="cls-15" cx="133.12" cy="11.21" r="2.62"/><circle class="cls-12" cx="123.15" cy="46.07" r="2.36"/><path class="cls-8" d="M27.72,52.63c0,1.45-1.17,2.62-2.62,2.62s-2.62-1.17-2.62-2.62,1.17-2.62,2.62-2.62,2.62,1.17,2.62,2.62Z"/><path class="cls-12" d="M22.74,45.55c0,.72-.59,1.31-1.31,1.31s-1.31-.59-1.31-1.31,.59-1.31,1.31-1.31,1.31,.59,1.31,1.31Z"/><path class="cls-9" d="M86.97,97.46c0,.87-.71,1.57-1.57,1.57s-1.57-.7-1.57-1.57,.7-1.57,1.57-1.57,1.57,.71,1.57,1.57Z"/></g><g><path class="cls-12" d="M-14.93,69.79c-3.19,4.68,1.04,10.72-1.38,15.22-2.42,4.5-6.74,5.02-9.86,2.6-3.63-2.83-3.41-6.64-8.3-8.82-5.53-2.46-17.98,2.25-19.71-7.26-.88-4.81,2.38-8.57,7.26-9.68,6.05-1.38,9.35-.18,15.39-3.11,6.05-2.94,11.24-8.99,22.14-12.11,10.41-2.97,16.07,1.56,16.6,5.88,1.04,8.47-17.13,9.95-22.14,17.29Zm-2.25-7.44c0-1.24-1.01-2.25-2.25-2.25s-2.25,1.01-2.25,2.25,1.01,2.25,2.25,2.25,2.25-1.01,2.25-2.25Z"/><path class="cls-9" d="M12.04,108.97c0,17.17-14.5,25.5-27,22.83-10.26-2.19-12.83-17.33-16.67-26.17-3.71-8.56-8.83-22.5-20.17-22.5s-12.83,14.5-23.67,14.5-24.5-15.67-24.5-39.67c0-14.67,9.8-31.46,20.83-30.67,11.67,.83,4.5,19.67,15.33,19.67,9.5,0,7.86-16.26,9.17-23.33,1.67-9,6.83-14.17,18.5-13.17,14.44,1.24,22.33,13.5,18.87,23.34-4.03,11.45-23.87,17.32-21.54,30.49,1.35,7.59,13,12,26,16.17,14.53,4.66,24.83,11.33,24.83,28.5ZM-32.91,33.13c0,1.82,1.47,3.29,3.29,3.29s3.29-1.47,3.29-3.29-1.47-3.29-3.29-3.29-3.29,1.47-3.29,3.29Zm-46.69,24.9c0-.96-.77-1.73-1.73-1.73s-1.73,.78-1.73,1.73,.78,1.73,1.73,1.73,1.73-.77,1.73-1.73Zm17.47,10.72c0-2.1-1.7-3.8-3.8-3.8s-3.8,1.7-3.8,3.8,1.71,3.8,3.8,3.8,3.8-1.7,3.8-3.8Zm19.89-15.56c0-.86-.7-1.56-1.56-1.56s-1.56,.7-1.56,1.56,.7,1.56,1.56,1.56,1.56-.7,1.56-1.56ZM-12.61,107.88c0-1.75-1.42-3.17-3.17-3.17s-3.17,1.42-3.17,3.17,1.42,3.17,3.17,3.17,3.17-1.42,3.17-3.17Z"/><path class="cls-9" d="M9.26,88.74c0-8.41-5.08-15.23-11.34-15.23s-11.34,6.82-11.34,15.23,5.08,12.44,11.34,12.44,11.34-4.03,11.34-12.44Z"/></g></g></pattern></defs><circle class="cls-5" cx="22.67" cy="35.58" r="21.67"/><g><path class="cls-14" d="M24.1,46.38c.75-.46,1.64-.62,2.45-.94,1.32-.53,2.51-1.62,2.75-3.02l.28,.99c.45,.55,.34,1.4-.09,1.96-.43,.56-1.11,.87-1.79,1.05-.68,.18-1.39,.27-2.06,.49-.24,.08-.5,.21-.56,.45-.06,.27,.16,.52,.42,.62,.25,.1,.54,.1,.8,.17,.14,.03,.3,.15,.24,.28-.04,.08-.13,.1-.21,.11-.89,.14-1.89,.08-2.56-.53-.17-.15-.31-.34-.35-.57-.07-.44,.3-.83,.68-1.07Z"/><path class="cls-13" d="M36.41,42.06c.71,1.42,.5,3.24-.5,4.46,.72,.16,1.52,.36,1.93,.98,.09,.14,.15,.34,.02,.44-.06,.04-.13,.05-.2,.06-1.32,.11-2.66,0-3.95-.31-.12-.03-.25-.06-.34-.15-.11-.11-.14-.28-.22-.42-.17-.29-.53-.38-.84-.52-1.3-.62-1.48-2.06-1.15-3.31,.21-.8,.48-1.59,.8-2.36,.13-.3,.27-.62,.54-.81,.67-.5,1.65-.14,2.29,.23,.69,.4,1.28,.99,1.64,1.71Z"/><path class="cls-14" d="M39.6,39.41c-.06,2.25-.32,4.5-.16,6.74,.03,.45,.12,1.15,.36,1.54,.09,.14,.23,.23,.33,.34,.11,.12,.19,.29,.12,.44-.08,.17-.32,.19-.51,.18-.2-.02-.4-.05-.6-.09-.15-.03-.31-.08-.43-.18-.11-.09-.17-.23-.22-.36-.48-1.14-.63-2.4-.89-3.61-.28-1.33-.59-2.65-.92-3.96-.15-.62-.32-1.25-.28-1.88,.06-1.07,.9-2.17,2.09-1.86,1.05,.28,1.13,1.85,1.11,2.7Z"/><path class="cls-14" d="M39.59,37.53c-.04,1.45-.57,2.96-1.73,3.84-1.08,.83-2.53,.99-3.75,1.58-.17,.08-.34,.17-.46,.31-.18,.2-.26,.47-.32,.73-.15,.69-.2,1.4-.15,2.1,.04,.47,.09,1.02-.26,1.32-.13,.11-.29,.17-.46,.21-1.02,.27-2.16,.06-3.01-.56-.25-.18-.48-.4-.61-.67-.12-.25-.16-.53-.19-.81-.15-1.8,.27-3.62,.99-5.28,.72-1.66,1.72-3.18,2.76-4.66,.27-.38,.53-.75,.78-1.14,.22-.35,.53-.66,.78-1,.52-.7,.96-1.47,1.18-2.32,.04-.15,.08-.41,.26-.43,.16-.01,.45,.17,.6,.22,.28,.11,.59,.2,.85,.36,.66,.39,1.23,.92,1.69,1.54,.87,1.2,1.09,3.23,1.05,4.67Z"/><path class="cls-6" d="M35.58,41.04c.93-1.08,1.4-2.55,1.26-3.96-.07-.68-.27-1.34-.39-2.01-.1-.51-.15-1.04-.08-1.56,.07-.52,.27-1.03,.62-1.41,.14-.15,.25-.29,.36-.44,.45,.34,.84,.74,1.17,1.19,.87,1.2,1.09,3.23,1.05,4.67-.04,1.45-.57,2.96-1.73,3.84-1.08,.83-2.53,.99-3.75,1.58-.09,.04-.18,.09-.26,.15,.13-.29,.33-.57,.54-.81,.38-.43,.82-.8,1.2-1.24Z"/><path class="cls-17" d="M37.79,35.41c-.7-.13-1.36-.45-1.95-.86-.49-.34-.98-.76-1.25-1.3-.21-.41-.22-.96,.15-1.3,.03-.03,.07-.05,.11-.05,.04,0,.06,.03,.09,.06,.6,.7,1.09,1.49,1.88,1.99,.6,.38,1.33,.59,2.04,.5,.16-.02,.26-.01,.41,.03,.02,0,.04,.03,.06,.05,.1,.13,.19,.28,.19,.45,0,.68-1.32,.49-1.72,.42Z"/><g><path class="cls-19" d="M39.14,27.18c.16-.2,.38-.42,.63-.36,.13,.03,.23,.13,.33,.22,.28,.25,.63,.43,.99,.51,.1,.02,.21,.04,.3,.1,.08,.06,.13,.15,.18,.24,.27,.52,.55,1.03,.82,1.55,.07,.12,.13,.29,.03,.39-.05,.04-.11,.06-.18,.07-.67,.07-1.26-.4-1.86-.71-.09-.05-.2-.09-.3-.07-.13,.02-.22,.14-.34,.19-.14,.05-.31,0-.43-.08-.12-.09-.2-.22-.28-.35-.17-.29-.32-.64-.31-.99,.01-.3,.23-.49,.41-.71Z"/><path class="cls-14" d="M38.82,27.46c.31-.01,.62,0,.9,.15,.11,.06,.21,.15,.3,.25,.35,.36,.72,.73,.94,1.19,.24,.49,.15,.99,.11,1.52-.03,.37-.05,.76,.12,1.09,.16,.32,.44,.55,.52,.91,.09,.39,0,.88-.09,1.27-.05,.22-.14,.47-.34,.57-.22,.1-.48,0-.73,.03-.3,.04-.53,.27-.81,.37-.5,.17-1.04-.12-1.48-.41-.55-.36-1.05-.82-1.6-1.17-.49-.32-1.07-.47-1.53-.87-.83-.73-1.04-1.88-.9-2.95,.07-.57,.33-1.14,.8-1.46,.52-.36,1.2-.38,1.83-.38,.54,0,1.07-.04,1.61-.08,.11,0,.23-.02,.35-.03Z"/><path class="cls-6" d="M37.28,32.22c.49-.17,1.06-.07,1.48-.36,.35-.25,.48-.71,.45-1.13-.04-.49-.27-.97-.35-1.46-.01-.09-.03-.19,0-.28s.12-.17,.22-.15c.09,.02,.14,.1,.18,.18,.23,.46,.35,.96,.47,1.46,.06,.24,.12,.48,.26,.68,.21,.32,.77,.59,1.18,.49,0,0,0,.01,0,.02,.16,.32,.44,.55,.52,.91,.09,.39,0,.88-.09,1.27-.05,.22-.14,.47-.34,.57-.22,.1-.48,0-.73,.03-.3,.04-.53,.27-.81,.37-.5,.17-1.04-.12-1.48-.41-.55-.36-1.05-.82-1.6-1.17-.07-.05-.14-.09-.22-.13,.14-.4,.45-.74,.85-.88Z"/><path class="cls-19" d="M35.55,27.26c.14-.03,.29-.08,.44-.08,.15,0,.3,.06,.38,.18,.08,.13,.06,.31,0,.45-.07,.14-.19,.25-.29,.37-.41,.45-.71,1.01-.85,1.61-.05,.2-.09,.42-.25,.56-.17,.14-.42,.13-.62,.03s-.34-.28-.46-.46c-.18-.26-.33-.54-.44-.84-.15-.38-.25-.81-.14-1.2,.32-1.11,1.46-.43,2.23-.62Z"/><path class="cls-18" d="M37.59,31.04c0,.2,.16,.36,.36,.36s.36-.16,.36-.36c0-.2-.16-.36-.36-.36s-.36,.16-.36,.36Z"/><path class="cls-18" d="M40.14,30.89c0,.2,.1,.36,.23,.36s.23-.16,.23-.36-.1-.36-.23-.36-.23,.16-.23,.36Z"/><path class="cls-10" d="M41.31,32.34c.1,.1,.1,.25,.1,.39,0,.05,0,.1-.03,.14-.05,.07-.14,.09-.23,.09-.04,0-.08,0-.12,.02-.05,.03-.07,.1-.09,.16-.02,.06-.05,.13-.09,.17-.05,.05-.12,.07-.18,.06-.16-.05-.17-.34-.34-.35-.03,0-.06,0-.09,.02-.1,.02-.21,.03-.3-.03-.14-.09-.15-.32-.05-.45,.18-.25,1.18-.44,1.42-.21Z"/><g><circle class="cls-14" cx="41.14" cy="33.51" r=".06"/><path class="cls-14" d="M41.2,33.93s.03,.06,.06,.06,.06-.03,.06-.06c0-.03-.03-.06-.06-.06s-.06,.03-.06,.06Z"/></g><g><path class="cls-14" d="M40.01,33.63s.03,.06,.06,.06,.06-.03,.06-.06-.03-.06-.06-.06-.06,.03-.06,.06Z"/><path class="cls-14" d="M39.76,34.05s.03,.06,.06,.06,.06-.03,.06-.06-.03-.06-.06-.06-.06,.03-.06,.06Z"/><circle class="cls-14" cx="39.61" cy="33.76" r=".06"/></g></g><path class="cls-7" d="M37.97,35.87c0,.3,.24,.54,.54,.54s.54-.24,.54-.54-.24-.54-.54-.54-.54,.24-.54,.54Z"/><path class="cls-14" d="M36.27,39.9c-.06,2.25-.32,4.5-.16,6.74,.03,.45,.12,1.15,.36,1.54,.09,.14,.23,.23,.33,.34s.19,.29,.12,.44c-.08,.17-.32,.19-.51,.18-.2-.02-.4-.05-.6-.09-.15-.03-.31-.08-.43-.18-.11-.09-.17-.23-.22-.36-.48-1.14-.63-2.4-.89-3.61-.28-1.33-.59-2.65-.92-3.96-.15-.62-.32-1.25-.28-1.88,.06-1.07,.9-2.17,2.09-1.86,1.05,.28,1.13,1.85,1.11,2.7Z"/><path class="cls-14" d="M33.33,43.26c.71,1.42,.5,3.24-.5,4.46,.72,.16,1.52,.36,1.93,.98,.09,.14,.15,.34,.02,.44-.06,.04-.13,.05-.2,.06-1.32,.11-2.66,0-3.95-.31-.12-.03-.25-.06-.34-.15-.11-.11-.14-.28-.22-.42-.17-.29-.53-.38-.84-.52-1.3-.62-1.48-2.06-1.15-3.31,.21-.8,.48-1.59,.8-2.36,.13-.3,.27-.62,.54-.81,.67-.5,1.65-.14,2.29,.23,.69,.4,1.28,.99,1.64,1.71Z"/><path class="cls-14" d="M32.41,35.63c.21-.29,.42-.59,.63-.89,.05,.57,.2,1.16,.03,1.7-.14,.44-.46,.79-.64,1.21-.37,.86-.13,1.98-.77,2.66-.52,.55-1.4,.56-2.03,.99-.18,.12-.33,.28-.5,.41,.15-.48,.32-.95,.52-1.41,.72-1.66,1.72-3.18,2.76-4.66Z"/><path class="cls-14" d="M30.21,43.63c-.16,.27-.45,.54-.75,.45-.17-.05-.29-.21-.34-.39s-.04-.36-.02-.54c.04-.43,.11-.87,.36-1.23,.26-.38,.92-.76,1.19-.23,.27,.52-.16,1.5-.44,1.94Z"/></g><text class="cls-3" transform="translate(19.25 27.19) scale(.99 1)"><tspan class="cls-21"><tspan x="0" y="0"> </tspan></tspan><tspan class="cls-21" x="-11.8" y="18"> </tspan><tspan class="cls-20" x="-9.67" y="18">Max</tspan></text><text class="cls-2" transform="translate(16.43 14.25) scale(.99 1)"><tspan x="0" y="0"> </tspan><tspan x="-13.58" y="20.09">Casa</tspan></text><text class="cls-4" transform="translate(3.77 41.07) scale(.99 1)"><tspan x="0" y="0">di</tspan></text></svg>