<?xml version="1.0" encoding="UTF-8"?>
<svg id="Layer_1" data-name="Layer 1" xmlns="http://www.w3.org/2000/svg" viewBox="0 0 533.94 311.4">
  <defs>
    <style>
      .cls-1 {
        fill: #f6f2e5;
      }

      .cls-2 {
        fill: #f9a048;
      }

      .cls-3 {
        fill: #333;
      }

      .cls-4 {
        fill: #dd9458;
      }

      .cls-5 {
        fill: #c6814e;
      }

      .cls-6 {
        fill: #235879;
      }

      .cls-7 {
        fill: #3c1a2b;
      }

      .cls-8 {
        fill: #845526;
      }

      .cls-9 {
        fill: none;
        stroke: #47112c;
        stroke-linecap: round;
        stroke-linejoin: round;
        stroke-width: .5px;
      }
    </style>
  </defs>
  <g>
    <path class="cls-4" d="M9.53,271.63c10.38-6.37,22.7-8.57,34.01-13.09,18.31-7.32,34.78-22.42,38.15-41.85l3.86,13.8c6.18,7.58,4.71,19.41-1.28,27.14-5.99,7.73-15.43,12.01-24.87,14.57-9.44,2.56-19.24,3.72-28.54,6.75-3.3,1.08-6.94,2.85-7.76,6.23-.89,3.69,2.27,7.26,5.79,8.67,3.52,1.4,7.44,1.38,11.12,2.29,1.93,.48,4.22,2.14,3.38,3.94-.5,1.06-1.82,1.38-2.97,1.56-12.33,1.93-26.19,1.05-35.45-7.32-2.33-2.11-4.35-4.78-4.85-7.88-.98-6.13,4.11-11.55,9.4-14.8Z"/>
    <g>
      <path class="cls-5" d="M180.45,211.71c9.84,19.65,6.98,44.99-7,61.95,10.03,2.2,21.07,5.05,26.76,13.6,1.26,1.89,2.04,4.76,.26,6.16-.78,.62-1.83,.73-2.82,.81-18.35,1.53-36.95,.08-54.84-4.27-1.69-.41-3.46-.89-4.71-2.12-1.57-1.54-1.95-3.9-3.06-5.8-2.35-4.01-7.41-5.27-11.61-7.28-18.1-8.67-20.59-28.62-16.02-45.97,2.94-11.16,6.66-22.12,11.13-32.76,1.77-4.21,3.79-8.56,7.44-11.3,9.32-7,22.86-1.88,31.71,3.24,9.62,5.56,17.76,13.77,22.75,23.73Z"/>
      <path class="cls-9" d="M197.51,293.69c-.02-1.96-.99-3.89-2.55-5.08"/>
      <path class="cls-9" d="M191.52,294.31c-.28-2.02-1.6-3.86-3.42-4.77"/>
      <path class="cls-9" d="M171.35,274.48c-4.81,1.7-9.93,2.5-15.02,2.36"/>
    </g>
    <g>
      <path class="cls-4" d="M224.66,174.83c-.81,31.21-4.44,62.44-2.22,93.58,.44,6.2,1.62,15.99,5.02,21.35,1.19,1.88,3.13,3.14,4.63,4.78,1.51,1.64,2.6,4.06,1.62,6.06-1.17,2.38-4.41,2.67-7.05,2.46-2.8-.22-5.59-.64-8.34-1.25-2.12-.47-4.29-1.09-5.91-2.54-1.46-1.31-2.32-3.15-3.08-4.95-6.69-15.87-8.77-33.31-12.36-50.05-3.94-18.4-8.2-36.73-12.76-54.99-2.14-8.58-4.37-17.3-3.9-26.13,.8-14.86,12.42-30.17,28.98-25.82,14.61,3.84,15.68,25.63,15.37,37.51Z"/>
      <path class="cls-9" d="M225.62,302.68c.79-2.51,.05-5.43-1.83-7.26"/>
      <path class="cls-9" d="M232.23,301.58c.62-1.96-.16-4.27-1.83-5.46"/>
      <path class="cls-9" d="M225.73,290.1c-1.86,.29-3.73,.5-5.6,.61"/>
    </g>
    <path class="cls-4" d="M224.49,148.76c-.55,20.13-7.97,41.04-23.98,53.26-15.03,11.48-35.04,13.71-52.07,21.94-2.33,1.13-4.65,2.4-6.41,4.3-2.54,2.74-3.65,6.49-4.47,10.13-2.14,9.52-2.83,19.36-2.02,29.09,.53,6.46,1.29,14.09-3.65,18.3-1.78,1.52-4.06,2.3-6.32,2.9-14.16,3.72-29.92,.78-41.79-7.8-3.43-2.48-6.6-5.48-8.48-9.27-1.72-3.47-2.26-7.41-2.58-11.27-2.1-25.01,3.81-50.22,13.76-73.27,9.95-23.05,23.85-44.16,38.35-64.65,3.7-5.22,7.42-10.45,10.8-15.84,3.06-4.89,7.37-9.18,10.81-13.87,7.15-9.74,13.3-20.44,16.35-32.21,.54-2.09,1.08-5.76,3.62-5.96,2.19-.17,6.2,2.3,8.26,3.11,3.86,1.51,8.17,2.83,11.75,4.95,9.18,5.45,17.13,12.74,23.41,21.37,12.12,16.63,15.18,44.8,14.64,64.8Z"/>
    <path class="cls-1" d="M168.92,197.58c12.97-14.93,19.45-35.32,17.48-55-.94-9.43-3.71-18.56-5.44-27.88-1.33-7.13-2.04-14.45-1.08-21.63,.97-7.19,3.72-14.27,8.64-19.59,1.88-2.03,3.51-4.07,5.06-6.07,6.2,4.68,11.68,10.26,16.27,16.55,12.12,16.63,15.18,44.8,14.64,64.8-.55,20.13-7.97,41.04-23.98,53.26-15.03,11.48-35.04,13.71-52.07,21.94-1.25,.6-2.49,1.26-3.65,2.03,1.85-4.07,4.52-7.84,7.46-11.23,5.24-6.02,11.43-11.16,16.67-17.18Z"/>
    <path class="cls-6" d="M199.5,119.41c-9.77-1.83-18.91-6.29-27.06-11.97-6.75-4.71-13.6-10.6-17.41-18.03-2.93-5.71-3-13.32,2.07-17.99,.41-.38,.92-.75,1.48-.67,.5,.07,.87,.47,1.2,.85,8.39,9.74,15.06,20.62,26.16,27.67,8.36,5.31,18.46,8.22,28.29,6.98,2.21-.28,3.65-.14,5.69,.48,.34,.1,.59,.39,.81,.67,1.43,1.8,2.63,3.92,2.63,6.22,.01,9.4-18.35,6.83-23.84,5.8Z"/>
    <g>
      <path class="cls-8" d="M218.28,5.14c2.25-2.77,5.34-5.85,8.8-4.99,1.8,.44,3.15,1.87,4.52,3.11,3.88,3.52,8.68,6,13.79,7.14,1.44,.32,2.95,.55,4.14,1.41,1.14,.82,1.84,2.11,2.5,3.35,3.81,7.17,7.61,14.34,11.42,21.51,.92,1.73,1.76,4.09,.35,5.45-.64,.62-1.58,.81-2.46,.9-9.3,.97-17.44-5.55-25.77-9.79-1.3-.66-2.74-1.29-4.17-1.02-1.79,.33-3.06,1.94-4.76,2.6-1.96,.76-4.25,.12-5.92-1.16-1.67-1.27-2.83-3.09-3.87-4.92-2.32-4.08-4.51-8.9-4.3-13.72,.18-4.19,3.17-6.75,5.73-9.9Z"/>
      <path class="cls-4" d="M213.8,9.04c4.29-.2,8.63,.07,12.52,2.13,1.58,.84,2.86,2.13,4.11,3.41,4.91,5,9.98,10.19,13.06,16.57,3.26,6.76,2.11,13.79,1.56,21.06-.39,5.12-.67,10.52,1.64,15.11,2.2,4.38,6.13,7.64,7.27,12.6,1.26,5.48-.02,12.21-1.22,17.63-.69,3.11-1.89,6.52-4.78,7.89-3.07,1.45-6.71-.05-10.08,.37-4.13,.51-7.36,3.8-11.3,5.15-6.99,2.41-14.44-1.61-20.61-5.71-7.6-5.06-14.51-11.33-22.16-16.24-6.84-4.39-14.8-6.45-21.16-12.05-11.52-10.13-14.39-26.07-12.49-40.87,1.01-7.89,4.63-15.77,11.16-20.31,7.21-5.01,16.6-5.22,25.37-5.25,7.44-.03,14.87-.5,22.28-1.14,1.58-.14,3.2-.28,4.82-.35Z"/>
      <path class="cls-1" d="M192.55,75.09c6.74-2.31,14.76-.91,20.58-5.01,4.82-3.4,6.71-9.85,6.18-15.73-.6-6.77-3.74-13.41-4.83-20.25-.21-1.3-.39-2.67,.05-3.91s1.7-2.3,2.99-2.06c1.2,.23,1.95,1.41,2.5,2.5,3.21,6.33,4.85,13.32,6.54,20.22,.81,3.3,1.67,6.67,3.57,9.49,2.96,4.38,10.71,8.22,16.43,6.74,.04,.09,.08,.18,.12,.26,2.2,4.38,6.13,7.64,7.27,12.6,1.26,5.48-.02,12.21-1.22,17.63-.69,3.11-1.89,6.52-4.78,7.89-3.07,1.45-6.71-.05-10.08,.37-4.13,.51-7.36,3.8-11.3,5.15-6.99,2.41-14.44-1.61-20.61-5.71-7.6-5.06-14.51-11.33-22.16-16.24-.98-.63-1.99-1.21-3.01-1.76,1.93-5.51,6.19-10.26,11.74-12.16Z"/>
      <path class="cls-8" d="M168.48,6.35c2-.48,3.99-1.09,6.05-1.06,2.05,.03,4.23,.81,5.34,2.54,1.18,1.83,.88,4.29-.11,6.23-.99,1.94-2.58,3.49-4.04,5.1-5.7,6.3-9.79,14.05-11.76,22.32-.67,2.8-1.23,5.9-3.44,7.75-2.33,1.95-5.89,1.83-8.57,.41s-4.66-3.87-6.36-6.39c-2.46-3.65-4.53-7.56-6.16-11.65-2.11-5.29-3.47-11.2-1.88-16.67,4.47-15.38,20.22-5.99,30.92-8.57Z"/>
      <path class="cls-7" d="M196.72,58.8c0,2.75,2.23,4.98,4.98,4.98s4.98-2.23,4.98-4.98c0-2.75-2.23-4.98-4.98-4.98s-4.98,2.23-4.98,4.98Z"/>
      <path class="cls-7" d="M232.18,56.69c0,2.75,1.42,4.98,3.18,4.98s3.18-2.23,3.18-4.98c0-2.75-1.42-4.98-3.18-4.98s-3.18,2.23-3.18,4.98Z"/>
      <path class="cls-9" d="M240.57,88.07c.35,5.83-.95,11.76-3.73,16.9"/>
      <path class="cls-3" d="M248.34,76.73c1.4,1.33,1.45,3.5,1.41,5.43-.02,.67-.04,1.38-.4,1.95-.63,1.01-2.01,1.2-3.2,1.24-.56,.02-1.16,.04-1.64,.33-.76,.45-1.01,1.4-1.28,2.24-.27,.87-.64,1.74-1.29,2.39-.64,.65-1.62,1.03-2.49,.77-2.26-.67-2.32-4.76-4.68-4.91-.45-.03-.88,.11-1.32,.22-1.37,.35-2.92,.36-4.11-.41-1.99-1.28-2.14-4.39-.71-6.28,2.56-3.41,16.42-6.06,19.69-2.97Z"/>
      <path class="cls-9" d="M235.09,86.15c-.74-.79-1.52-1.56-2.48-2.07-.95-.51-2.1-.73-3.13-.39"/>
      <path class="cls-9" d="M244.45,85.43c.82-1.42,1.69-2.9,3.09-3.74"/>
      <g>
        <circle class="cls-4" cx="245.99" cy="92.98" r=".88"/>
        <path class="cls-4" d="M246.87,98.8c0,.48,.39,.88,.88,.88s.88-.39,.88-.88c0-.48-.39-.88-.88-.88s-.88,.39-.88,.88Z"/>
      </g>
      <g>
        <path class="cls-4" d="M230.43,94.73c0,.48,.39,.88,.88,.88s.88-.39,.88-.88c0-.48-.39-.88-.88-.88s-.88,.39-.88,.88Z"/>
        <path class="cls-4" d="M226.83,100.55c0,.48,.39,.88,.88,.88s.88-.39,.88-.88c0-.48-.39-.88-.88-.88s-.88,.39-.88,.88Z"/>
        <circle class="cls-4" cx="224.77" cy="96.52" r=".88"/>
      </g>
    </g>
    <path class="cls-2" d="M202.05,125.75c0,4.16,3.37,7.53,7.53,7.53s7.53-3.37,7.53-7.53c0-4.16-3.37-7.53-7.53-7.53-4.16,0-7.53,3.37-7.53,7.53Z"/>
    <g>
      <path class="cls-4" d="M178.4,181.65c-.81,31.21-4.44,62.44-2.22,93.58,.44,6.2,1.62,15.99,5.02,21.35,1.19,1.88,3.13,3.14,4.63,4.78,1.51,1.64,2.6,4.06,1.62,6.06-1.17,2.38-4.41,2.67-7.05,2.46-2.8-.22-5.59-.64-8.34-1.25-2.12-.47-4.29-1.09-5.91-2.54-1.46-1.31-2.32-3.15-3.08-4.95-6.69-15.87-8.77-33.31-12.36-50.05-3.94-18.4-8.2-36.73-12.76-54.99-2.14-8.58-4.37-17.3-3.9-26.13,.8-14.86,12.42-30.17,28.98-25.82,14.61,3.84,15.68,25.63,15.37,37.51Z"/>
      <path class="cls-9" d="M179.15,309.59c.55-2.21-.39-4.72-2.27-6.02"/>
      <path class="cls-9" d="M185.73,309.22c.48-2.29-.23-4.79-1.84-6.49"/>
      <path class="cls-9" d="M177.62,297.4c-1.85,.4-3.69,.8-5.54,1.19"/>
      <path class="cls-9" d="M176.81,213c.53-14.46,1.07-28.91,1.6-43.37"/>
    </g>
    <path class="cls-9" d="M220.36,175.06c-5.51,14.51-16.93,26.68-31.07,33.1-.33,.15-.72,.39-.69,.75,.03,.36,.78,.21,.55-.06"/>
    <g>
      <path class="cls-4" d="M137.69,228.29c9.84,19.65,6.98,44.99-7,61.95,10.03,2.2,21.07,5.05,26.76,13.6,1.26,1.89,2.04,4.76,.26,6.16-.78,.62-1.83,.73-2.82,.81-18.35,1.53-36.95,.08-54.84-4.27-1.69-.41-3.46-.89-4.71-2.12-1.57-1.54-1.95-3.9-3.06-5.8-2.35-4.01-7.41-5.27-11.61-7.28-18.1-8.67-20.59-28.62-16.02-45.97,2.94-11.16,6.66-22.12,11.13-32.76,1.77-4.21,3.79-8.56,7.44-11.3,9.32-7,22.86-1.88,31.71,3.24,9.62,5.56,17.76,13.77,22.75,23.73Z"/>
      <path class="cls-9" d="M154.74,310.27c-.02-1.96-.99-3.89-2.55-5.08"/>
      <path class="cls-9" d="M148.76,310.89c-.28-2.02-1.6-3.86-3.42-4.77"/>
      <path class="cls-9" d="M128.59,291.05c-4.81,1.7-9.93,2.5-15.02,2.36"/>
      <path class="cls-9" d="M64.36,245.63c-2.24,8.24-2.53,17.01-.84,25.39"/>
    </g>
    <path class="cls-4" d="M124.84,122.41c2.89-4.09,5.84-8.21,8.72-12.4,.73,7.9,2.74,16.04,.41,23.53-1.89,6.07-6.42,10.96-8.93,16.79-5.13,11.93-1.77,27.46-10.68,36.91-7.22,7.65-19.44,7.78-28.13,13.72-2.48,1.7-4.64,3.84-6.99,5.71,2.05-6.67,4.48-13.23,7.24-19.62,9.95-23.05,23.85-44.16,38.35-64.65Z"/>
    <path class="cls-4" d="M94.34,233.46c-2.27,3.69-6.18,7.43-10.34,6.22-2.39-.7-4.08-2.95-4.76-5.35-.68-2.4-.51-4.95-.28-7.43,.56-5.97,1.55-12.14,4.94-17.09,3.6-5.25,12.74-10.56,16.51-3.25,3.73,7.25-2.28,20.75-6.06,26.89Z"/>
  </g>
  <path class="cls-9" d="M203.92,39.07c-5.08-2.94-12.46-.55-14.86,4.81"/>
  <path class="cls-9" d="M241.63,38.79c-.78-1.32-1.58-2.68-2.8-3.61-1.21-.94-2.94-1.37-4.3-.66-1.3,.68-2.1,2.29-3.55,2.52"/>
  <path class="cls-9" d="M196.68,98.96c-2.71-4.2-3.79-9.42-2.99-14.36"/>
  <path class="cls-9" d="M196.81,86.37c-1.65-1.78-4.16-2.72-6.58-2.46"/>
  <path class="cls-9" d="M227.55,12.11c2.28-.16,4.62-.22,6.78,.5,5.2,1.71,7.97,7.16,11.05,11.69,1.47,2.17,3.12,4.21,4.93,6.11,1.45,1.52,3.08,3,5.11,3.57"/>
  <path class="cls-9" d="M160.04,9.88c-4.74,4.19-5.12,11.41-8.33,16.86"/>
</svg>