<?xml version="1.0" encoding="UTF-8"?>
<svg id="Layer_1" data-name="Layer 1" xmlns="http://www.w3.org/2000/svg" viewBox="0 0 526 619">
  <defs>
    <style>
      .cls-1 {
        fill: none;
        stroke: #231f20;
        stroke-miterlimit: 10;
      }
    </style>
  </defs>
  <path class="cls-1" d="M334.54,152.73c2.68-.78,5.37-1.56,8.05-2.34,1.21,1.13,2.42,2.25,3.64,3.38,.36,1.71,1.42,5.33,4.68,8.05,.76,.64,1.92,1.45,3.24,2.12,1.67-6.13,3.48-12.22,5.38-18.24,.9-2.87,3.5-3.82,5.81-3.38,.36-2.21,.74-4.38,1.16-6.47-.61-2.86-1.21-5.71-1.82-8.57-22.86-12.47-45.72-24.94-68.58-37.41-15.76,1.91-21.73,5.88-24.16,9.35-.89,1.26-2.43,4.08-5.71,8.05-2.77,3.35-3.87,4.02-4.68,5.97-.9,2.19-1.29,5.67,1.3,11.17-.8-.04-1.97-.07-3.38,0-2.31,.11-9.6,.53-16.88,4.94-4.41,2.66-4.16,3.97-9.61,7.01-.67,.38-2.52,1.38-6.75,3.12-6.34,2.6-10.12,3.59-13.25,4.68-3.94,1.37-9.38,3.78-15.59,8.31-25.73,2.07-34.32,6.9-37.15,11.17-2.63,3.97-5.73,7.61-8.57,11.43-.91,1.23-2.21,2.96-4.42,4.68-3.13,2.42-6.05,3.21-7.27,3.64-10.62,3.66-15.91,21.85-16.88,25.2-.86,2.94-1.84,7.28-2.08,12.73,1.52,.05,3.04,.11,4.56,.16,2.64,1.91,5.35,3.97,8.09,6.17,3.89,3.12,7.48,6.22,10.79,9.25,2.23,4,6.69,10.77,14.64,16.57,5.08,3.7,10.03,5.89,13.95,7.2,.98-.54,2.21-.68,3.64-.14,1.84,.7,3.47,1.54,4.9,2.53,.03,0,.07,.02,.1,.03,0,.01-.01,.02-.02,.03,3.86,2.71,6.17,6.57,6.83,11.84,26.83,11.3,50.91,28.64,72,48.61,14.64,13.86,28.07,29.19,39.83,45.67,.26-.1,.53-.19,.79-.29,.4-25.85,14.61-49.98,30.76-69.33,9.57-11.46,20.62-22.16,32.83-31.18-1.16-9.31-1.91-18.64-2.1-27.98-2.57-2.42-5.6-5.3-9.55-8.08-.15,4.88-.15,9.76,.06,14.65,.27,6.45-9.73,6.41-10,0-.29-6.72-.22-13.44,.14-20.15-.32-.14-.64-.28-.97-.42-2.75-1.13-5.1-1.85-6.71-2.28-.09-6.32-.17-12.64-.26-18.96,.02-4.68-.63-12.53-4.94-20.78-1.71-3.28-3.65-5.95-5.45-8.05-.39-1.37-2.72-10.15,2.6-17.66,2.3-3.24,5.16-5.04,7.01-5.97Z"/>
  <path class="cls-1" d="M296.14,280.26c3.54-1.61,7.08-3.22,10.62-4.83,1.26-1.11,4.45-4.23,5.81-9.46,1.32-5.06,.16-9.21-.38-10.82-1.66-.71-4.36-1.6-7.74-1.55-6.37,.1-10.77,3.46-12.2,4.66-1.65,.15-7.08,.86-11.5,5.33-2.71,2.74-3.89,5.74-4.41,7.43,.91,1.49,3.46,5.23,8.42,7.57,5.06,2.39,9.65,1.92,11.37,1.66Z"/>
  <path class="cls-1" d="M249.39,196.14c-3.19-3.32-6.37-6.64-9.56-9.95-3.37-.12-7.96,.25-12.74,2.39-15.06,6.75-18.03,24.79-18.32,26.68,5.57-5.18,11.15-10.35,16.72-15.53,1.31-1.24,3.01-2.55,5.18-3.58,8.19-3.92,16.54-.87,18.71,0Z"/>
  <path class="cls-1" d="M273.57,188.52c-1.34-5.34-2.67-10.69-4.01-16.03,2.73-2.05,6.57-4.41,11.53-6.01,12.47-4.04,23.45-.55,27.56,1-1.56-.44-13.42-3.58-24.05,4.01-8.45,6.03-10.57,14.87-11.02,17.04Z"/>
  <path class="cls-1" d="M215.55,228.94c-.36-.42-.17-1.47,14.18-17.02,.64-.69,1.59-1.7,3.15-2.21,4.22-1.37,9.18,2.16,11.66,5.04,3.51,4.09,3.78,8.92,3.78,10.71,2.36,.71,3.52,1.23,3.47,1.58-.08,.51-2.81,.61-8.19,.32-1.53,1.14-4.81,3.25-9.45,3.78-6.98,.8-12.14-2.5-13.55-3.47-3.53,1.74-4.68,1.69-5.04,1.26Z"/>
  <path class="cls-1" d="M186.69,263.59c4.31,.41,7.31,2.41,11.31,2.41,2-1,4-4,4-6,1-10,0-21,1-31-5-10-12-19-13-30-1-14,4-28,13.48-39.16"/>
  <path class="cls-1" d="M318.65,186.08c-.09-.55-1.01-1.09-22.22-.23-.94,.04-2.33,.11-3.74,.97-3.81,2.34-4.38,8.43-3.82,12.2,.8,5.35,4.29,8.69,5.65,9.87-1.01,2.27-1.37,3.49-1.08,3.68,.44,.27,2.31-1.75,5.61-6.06,1.87-.43,5.62-1.56,9.07-4.77,5.19-4.81,6.07-10.91,6.25-12.62,3.64-1.57,4.35-2.48,4.26-3.04Z"/>
  <path class="cls-1" d="M274.73,266.12c.57-2.43,2.04-7.08,6.09-11.14,8.02-8.04,19.18-6.81,20.71-6.61,3.42,1.33,6.84,2.67,10.27,4-1.59-.64-4.81-1.68-8.87-1.22-5.45,.62-9.02,3.56-10.27,4.7-1.99,.07-5.54,.45-9.4,2.44-4.8,2.48-7.42,6.09-8.53,7.83Z"/>
  <path class="cls-1" d="M269.59,197.95c-.17,.59-1.21,4.38,1.08,7.89,1.5,2.31,3.64,3.26,4.48,3.59l13.44,8.96c5.86,4.24,11.71,8.48,17.57,12.73,3.59,1.2,7.17,2.39,10.76,3.59,3.35,6.27,6.69,12.55,10.04,18.82,1.91,.96,3.82,1.91,5.74,2.87,1.14,3.35,2.27,6.69,3.41,10.04l-2.96,22.27c-1.84,3.31-4.95,7.9-9.99,12.08-9.55,7.93-20.02,9.4-24.4,9.76h-7.67c-.23-.45-1.94-3.64-5.53-4.31-1.74-.32-3.18,.08-3.94,.36-.66,.66-1.31,1.31-1.97,1.97-.21,.2-4.22,3.81-9.5,2.33-5.09-1.43-6.7-6.28-6.81-6.63-3.05-1.02-6.09-2.03-9.14-3.05l3.94-4.3c.66-5.02,1.31-10.04,1.97-15.06,.78-1.25,1.55-2.51,2.33-3.76,.24-10.52,.48-21.03,.72-31.55,2.63-7.77,5.26-15.54,7.89-23.3,1.42-1.97,2.88-4.7,2.15-7.35-.69-2.53-2.88-3.15-4.3-5.38-1.36-2.12-2.07-5.79,.72-12.55Z"/>
  <path class="cls-1" d="M282.38,304.48c.65-3.78,1.31-7.55,1.96-11.33-2.17-4.22-4.34-8.45-6.51-12.67,2.47,2.59,4.94,5.17,7.41,7.76-1.52-3.36-3.03-6.72-4.55-10.08"/>
  <path class="cls-1" d="M331.72,278.64c-2.63-.99-5.26-1.98-7.89-2.97-2.34-4.26-4.68-8.53-7.02-12.79,.77,3.69,1.55,7.38,2.32,11.07-1.99-3.19-3.97-6.38-5.96-9.58"/>
  <path class="cls-1" d="M250.65,296.3c-4.7-3.3-10.12-6.74-16.26-10.05-7.2-3.89-14-6.87-20.11-9.17-3.55-3.55-7.1-7.1-10.65-10.65"/>
  <path class="cls-1" d="M335.58,224.16c-.77,8.63-1.55,17.27-2.32,25.9"/>
  <path class="cls-1" d="M220.96,177.74c5.86-8.93,11.73-17.86,17.59-26.78,13.73,.93,27.45,1.87,41.18,2.8-14.92-4.4-29.85-8.79-44.77-13.19-4.66,12.39-9.33,24.79-13.99,37.18Z"/>
  <path class="cls-1" d="M342.59,150.39c-2.12-5.78-9.21-22.76-27.47-33.97-11.53-7.08-22.65-8.87-28.92-9.38-3.91,2.08-7.82,4.17-11.72,6.25"/>
</svg>